# xmcd
#
# Track frame offsets: 
#        150
#        24858
#        46865
#        63178
#        82135
#        109063
#        148495
#        179303
#        197393
#        218470
#
# Disc length: 3174 seconds
#
# Revision: 4
# Processed by: cddbd v1.5.2PL0 Copyright (c) Steve Scherf et al.
# Submitted via: ExactAudioCopy v0.99pb5
#
DISCID=820c640a
DTITLE=James, Etta and Eddie "Cleanhead" Vinson - The Late Show
DYEAR=1986
DGENRE=Blues
TTITLE0=Cleanhead Blues
TTITLE1=Old Maid Boogie
TTITLE2=Home Boy
TTITLE3=Cherry Red
TTITLE4=Baby, What You Want Me To Do?
TTITLE5=Sweet Little Angel
TTITLE6=I'd Rather Go Blind
TTITLE7=Teach Me Tonight
TTITLE8=Only Women Bleed
TTITLE9=He's Got The Whole World In His Hands
EXTD=YEAR: 1990
EXTT0=
EXTT1=
EXTT2=
EXTT3=
EXTT4=
EXTT5=
EXTT6=
EXTT7=
EXTT8=
EXTT9=
PLAYORDER=
